<?xml version="1.0" standalone="no"?>
<!DOCTYPE svg PUBLIC "-//W3C//DTD SVG 20010904//EN"
 "http://www.w3.org/TR/2001/REC-SVG-20010904/DTD/svg10.dtd">
<svg version="1.0" xmlns="http://www.w3.org/2000/svg"
 width="560.000000pt" height="560.000000pt" viewBox="0 0 560.000000 560.000000"
 preserveAspectRatio="xMidYMid meet">
<metadata>
Created by potrace 1.11, written by Peter Selinger 2001-2013
</metadata>
<g transform="translate(0.000000,560.000000) scale(0.100000,-0.100000)"
fill="#000000" stroke="none">
<path d="M3094 5234 c-83 -39 -195 -63 -419 -89 -361 -43 -439 -66 -615 -180
-237 -153 -360 -346 -416 -651 -15 -79 -18 -152 -19 -364 0 -288 5 -324 48
-318 28 4 40 42 62 192 27 181 91 374 159 481 20 30 94 117 167 193 l131 139
281 -5 c289 -4 723 10 811 28 60 12 80 2 125 -63 16 -24 63 -70 103 -102 236
-189 291 -295 328 -630 20 -176 47 -256 83 -242 35 13 44 575 13 752 -46 258
-128 391 -344 558 -57 44 -106 86 -109 94 -3 7 2 33 11 56 9 24 16 53 16 65 0
42 -21 40 -178 -16 -9 -3 -11 5 -6 36 4 25 2 42 -5 47 -7 4 -46 -9 -88 -29
-41 -20 -76 -36 -78 -36 -2 0 6 17 18 38 22 42 18 72 -10 71 -10 0 -41 -12
-69 -25z"/>
<path d="M2211 3825 c-91 -21 -199 -75 -248 -125 -44 -43 -52 -67 -31 -88 20
-20 43 -14 79 24 83 86 271 139 408 114 44 -8 66 -8 81 0 29 16 22 51 -13 68
-42 20 -200 24 -276 7z"/>
<path d="M3151 3829 c-50 -10 -71 -24 -71 -49 0 -34 23 -42 96 -30 147 24 330
-27 413 -114 36 -38 59 -44 79 -24 21 21 13 43 -35 90 -107 105 -316 160 -482
127z"/>
<path d="M2199 3441 c-33 -33 -39 -45 -39 -81 0 -36 6 -48 39 -81 33 -33 45
-39 81 -39 36 0 48 6 81 39 33 33 39 45 39 81 0 36 -6 48 -39 81 -33 33 -45
39 -81 39 -36 0 -48 -6 -81 -39z"/>
<path d="M3239 3441 c-33 -33 -39 -45 -39 -81 0 -36 6 -48 39 -81 33 -33 45
-39 81 -39 36 0 48 6 81 39 33 33 39 45 39 81 0 36 -6 48 -39 81 -33 33 -45
39 -81 39 -36 0 -48 -6 -81 -39z"/>
<path d="M2520 2595 c0 -54 40 -133 91 -179 81 -73 182 -94 285 -59 92 31 184
151 184 240 l0 23 -280 0 -280 0 0 -25z"/>
<path d="M2075 1624 c-22 -8 -74 -21 -115 -30 -187 -39 -367 -115 -526 -220
-157 -104 -365 -326 -441 -470 l-27 -51 49 -58 c129 -150 356 -336 563 -460
611 -366 1390 -436 2055 -186 338 127 683 356 914 607 100 110 99 92 5 233
-194 288 -521 515 -852 591 -52 12 -124 31 -159 41 -35 10 -78 19 -94 19 -28
0 -29 -2 -23 -32 4 -18 10 -61 13 -95 6 -61 5 -64 -30 -109 -128 -164 -407
-259 -689 -233 -245 23 -465 137 -538 279 -22 44 -23 65 -4 158 6 31 6 32 -27
32 -19 -1 -52 -7 -74 -16z m2042 -1040 c41 -31 72 -58 70 -61 -6 -5 -357 -41
-357 -36 0 35 145 153 189 153 14 0 55 -23 98 -56z"/>
</g>
</svg>
